<svg width="120" height="40" viewBox="0 0 120 40" fill="none" xmlns="http://www.w3.org/2000/svg">
<path d="M8.16 31V6H0.44V1.2H21.24V6H13.64V31H8.16ZM28.3369 31.48C26.8169 31.48 25.4969 31.2267 24.3769 30.72C23.2569 30.2133 22.3902 29.4933 21.7769 28.56C21.1635 27.6 20.8569 26.4933 20.8569 25.24C20.8569 24.04 21.1235 22.9733 21.6569 22.04C22.1902 21.08 23.0169 20.28 24.1369 19.64C25.2569 19 26.6702 18.5467 28.3769 18.28L35.4969 17.12V21.12L29.3769 22.16C28.3369 22.3467 27.5635 22.68 27.0569 23.16C26.5502 23.64 26.2969 24.2667 26.2969 25.04C26.2969 25.7867 26.5769 26.3867 27.1369 26.84C27.7235 27.2667 28.4435 27.48 29.2969 27.48C30.3902 27.48 31.3502 27.2533 32.1769 26.8C33.0302 26.32 33.6835 25.6667 34.1369 24.84C34.6169 24.0133 34.8569 23.1067 34.8569 22.12V16.52C34.8569 15.5867 34.4835 14.8133 33.7369 14.2C33.0169 13.56 32.0569 13.24 30.8569 13.24C29.7369 13.24 28.7369 13.5467 27.8569 14.16C27.0035 14.7467 26.3769 15.5333 25.9769 16.52L21.6969 14.44C22.1235 13.2933 22.7902 12.3067 23.6969 11.48C24.6302 10.6267 25.7235 9.96 26.9769 9.48C28.2302 9 29.5902 8.76 31.0569 8.76C32.8435 8.76 34.4169 9.09333 35.7769 9.76C37.1369 10.4 38.1902 11.3067 38.9369 12.48C39.7102 13.6267 40.0969 14.9733 40.0969 16.52V31H35.1369V27.28L36.2569 27.2C35.6969 28.1333 35.0302 28.92 34.2569 29.56C33.4835 30.1733 32.6035 30.6533 31.6169 31C30.6302 31.32 29.5369 31.48 28.3369 31.48ZM53.22 31.48C50.9 31.48 48.8733 30.9333 47.14 29.84C45.4333 28.72 44.26 27.2133 43.62 25.32L47.54 23.44C48.1 24.6667 48.8733 25.6267 49.86 26.32C50.8733 27.0133 51.9933 27.36 53.22 27.36C54.18 27.36 54.94 27.1467 55.5 26.72C56.06 26.2933 56.34 25.7333 56.34 25.04C56.34 24.6133 56.22 24.2667 55.98 24C55.7667 23.7067 55.46 23.4667 55.06 23.28C54.6867 23.0667 54.2733 22.8933 53.82 22.76L50.26 21.76C48.42 21.2267 47.02 20.4133 46.06 19.32C45.1267 18.2267 44.66 16.9333 44.66 15.44C44.66 14.1067 44.9933 12.9467 45.66 11.96C46.3533 10.9467 47.3 10.16 48.5 9.6C49.7267 9.04 51.1267 8.76 52.7 8.76C54.7533 8.76 56.5667 9.25333 58.14 10.24C59.7133 11.2267 60.8333 12.6133 61.5 14.4L57.5 16.28C57.1267 15.2933 56.5 14.5067 55.62 13.92C54.74 13.3333 53.7533 13.04 52.66 13.04C51.78 13.04 51.0867 13.24 50.58 13.64C50.0733 14.04 49.82 14.56 49.82 15.2C49.82 15.6 49.9267 15.9467 50.14 16.24C50.3533 16.5333 50.6467 16.7733 51.02 16.96C51.42 17.1467 51.8733 17.32 52.38 17.48L55.86 18.52C57.6467 19.0533 59.02 19.8533 59.98 20.92C60.9667 21.9867 61.46 23.2933 61.46 24.84C61.46 26.1467 61.1133 27.3067 60.42 28.32C59.7267 29.3067 58.7667 30.08 57.54 30.64C56.3133 31.2 54.8733 31.48 53.22 31.48ZM65.4869 31V0.719999H70.7269V20.56L68.7269 19.96L78.9669 9.24H85.4869L77.4469 18L85.6469 31H79.6469L72.5269 19.72L75.6469 19.08L69.0869 26.12L70.7269 22.92V31H65.4869ZM88.5728 31V0.719999H93.8128V31H88.5728ZM101.291 39.8C100.704 39.8 100.131 39.7467 99.5709 39.64C99.0109 39.56 98.5043 39.4 98.0509 39.16V34.8C98.3976 34.88 98.8109 34.96 99.2909 35.04C99.7976 35.12 100.264 35.16 100.691 35.16C101.891 35.16 102.758 34.88 103.291 34.32C103.851 33.7867 104.344 33.0667 104.771 32.16L106.211 28.8L106.131 33.2L96.6509 9.24H102.291L108.931 26.92H106.931L113.531 9.24H119.211L109.731 33.2C109.171 34.5867 108.491 35.7733 107.691 36.76C106.891 37.7467 105.958 38.4933 104.891 39C103.851 39.5333 102.651 39.8 101.291 39.8Z" fill="#4169E1"/>
</svg>
