<?xml version="1.0" standalone="no"?>
<!DOCTYPE svg PUBLIC "-//W3C//DTD SVG 20010904//EN"
 "http://www.w3.org/TR/2001/REC-SVG-20010904/DTD/svg10.dtd">
<svg version="1.0" xmlns="http://www.w3.org/2000/svg"
 width="6000.000000pt" height="6000.000000pt" viewBox="0 0 6000.000000 6000.000000"
 preserveAspectRatio="xMidYMid meet">

<g transform="translate(0.000000,6000.000000) scale(0.100000,-0.100000)"
fill="#000000" stroke="none">
<path d="M29330 56994 c-708 -39 -1238 -128 -1795 -302 l-150 -46 -492 -328
c-778 -518 -1160 -785 -1623 -1134 -1864 -1406 -3244 -2953 -4275 -4794 -137
-245 -422 -813 -539 -1075 -346 -774 -616 -1546 -835 -2385 -67 -257 -115
-470 -291 -1295 -358 -1678 -681 -3157 -1155 -5305 -786 -3557 -961 -4430
-1149 -5735 -209 -1447 -308 -2484 -711 -7460 -323 -3985 -473 -5786 -720
-8670 -58 -671 -111 -1296 -119 -1388 -8 -93 -16 -170 -19 -173 -6 -7 -447
-169 -1479 -544 -856 -312 -971 -356 -1128 -435 -343 -172 -621 -374 -906
-659 -246 -247 -444 -504 -637 -826 -88 -147 -268 -507 -337 -675 -407 -988
-642 -2211 -734 -3820 -43 -736 -48 -1313 -37 -4280 5 -1205 -7 -1770 -50
-2478 -6 -98 -9 -181 -6 -183 4 -5 19008 34 19013 39 6 5 -532 445 -1189 972
-386 309 -783 632 -882 717 -478 411 -733 690 -1017 1112 -325 484 -471 825
-653 1526 -35 135 -89 340 -119 455 -226 852 -446 1938 -1061 5235 -528 2831
-753 4015 -1151 6060 -80 410 -146 751 -147 758 -1 8 59 53 135 100 620 392
1188 914 1616 1487 669 895 1091 1977 1241 3185 48 388 55 513 56 1020 0 495
-6 615 -46 990 -28 256 -62 487 -110 740 -53 281 -207 1029 -214 1041 -6 8
-54 47 -885 711 -798 637 -1202 998 -1559 1393 -678 750 -1091 1509 -1331
2450 -171 669 -240 1299 -240 2177 l0 407 -47 -20 c-149 -64 -371 -81 -528
-40 -159 41 -463 216 -635 365 -217 189 -395 464 -543 841 -93 236 -184 524
-303 960 -62 227 -730 2880 -761 3020 -101 465 36 934 372 1270 451 452 1138
553 1682 248 176 -99 221 -142 499 -483 141 -173 297 -361 345 -418 l89 -103
0 128 c0 160 22 354 60 543 82 407 240 841 895 2455 136 336 354 876 485 1200
323 802 436 1057 647 1465 942 1818 2255 3338 3914 4527 96 69 187 105 509
198 867 251 1581 213 2435 -127 197 -78 621 -289 862 -427 787 -452 1724
-1120 3308 -2360 597 -467 807 -634 3934 -3126 l226 -180 12 -118 c22 -228 35
-583 103 -2872 94 -3172 162 -5460 197 -6600 33 -1115 35 -1242 25 -1475 -18
-376 -51 -663 -113 -975 -264 -1323 -938 -2454 -2109 -3540 -305 -283 -637
-563 -1115 -939 -137 -108 -351 -277 -475 -375 l-225 -179 -53 -268 c-269
-1387 -354 -2477 -267 -3424 127 -1376 592 -2516 1439 -3528 l126 -150 10
-629 c16 -1027 32 -1536 65 -2123 44 -764 122 -1518 215 -2080 11 -63 22 -131
24 -150 3 -19 8 -55 11 -80 11 -74 113 -575 148 -725 l33 -140 -98 -505 c-149
-765 -366 -1902 -578 -3030 -370 -1970 -509 -2676 -646 -3295 -381 -1717 -692
-2409 -1403 -3123 -259 -260 -562 -520 -1286 -1102 -592 -476 -1280 -1041
-1272 -1045 4 -2 7336 14 11027 25 2071 5 4498 10 5394 10 l1629 0 -6 78 c-31
371 -53 802 -68 1312 -13 439 -7 2082 12 3150 17 988 4 1901 -36 2585 -105
1763 -436 3052 -1048 4070 -143 238 -314 481 -476 675 -101 120 -338 375 -387
415 -24 20 -49 46 -55 57 -7 12 -35 114 -64 227 -170 663 -642 2223 -1200
3966 -354 1106 -482 1518 -616 1990 -319 1116 -483 2008 -528 2860 -6 110 -16
520 -21 910 -51 3499 -350 7456 -826 10930 -616 4496 -1514 8276 -2696 11345
-484 1256 -1022 2412 -1570 3370 -926 1618 -1961 2847 -3153 3743 -1292 971
-2773 1568 -4835 1951 -759 141 -1326 219 -1900 261 -190 14 -911 27 -1060 19z
m-9645 -38483 c-19 -17 -1181 -467 -2280 -883 -577 -218 -612 -231 -600 -220
6 5 288 116 627 247 340 132 616 240 614 242 -1 2 -88 -27 -192 -63 -218 -75
-604 -197 -879 -277 -278 -81 -856 -239 -860 -235 -2 2 121 41 273 87 878 266
2308 744 3082 1030 237 88 228 84 215 72z m18295 -5881 c6 -11 8 -20 6 -20 -3
0 -10 9 -16 20 -6 11 -8 20 -6 20 3 0 10 -9 16 -20z m113 -255 c164 -363 460
-981 677 -1416 50 -98 90 -182 90 -186 -1 -15 -253 482 -405 797 -207 428
-489 1049 -466 1025 5 -6 52 -104 104 -220z m2781 -5641 c3 -8 2 -12 -4 -9 -6
3 -10 10 -10 16 0 14 7 11 14 -7z m71 -204 c80 -237 197 -651 194 -692 0 -7
-18 55 -40 137 -50 190 -149 517 -195 643 -19 53 -30 92 -25 87 5 -6 35 -84
66 -175z m209 -745 c5 -22 4 -26 -4 -15 -5 8 -10 24 -10 34 0 26 6 18 14 -19z"/>
<path d="M18070 17910 c-8 -5 -10 -10 -5 -10 6 0 17 5 25 10 8 5 11 10 5 10
-5 0 -17 -5 -25 -10z"/>
</g>
</svg>
