<svg width="72" height="25" viewBox="0 0 72 25" fill="none" xmlns="http://www.w3.org/2000/svg">
<path d="M4.896 19V4H0.264V1.12H12.744V4H8.184V19H4.896ZM17.0021 19.288C16.0901 19.288 15.2981 19.136 14.6261 18.832C13.9541 18.528 13.4341 18.096 13.0661 17.536C12.6981 16.96 12.5141 16.296 12.5141 15.544C12.5141 14.824 12.6741 14.184 12.9941 13.624C13.3141 13.048 13.8101 12.568 14.4821 12.184C15.1541 11.8 16.0021 11.528 17.0261 11.368L21.2981 10.672V13.072L17.6261 13.696C17.0021 13.808 16.5381 14.008 16.2341 14.296C15.9301 14.584 15.7781 14.96 15.7781 15.424C15.7781 15.872 15.9461 16.232 16.2821 16.504C16.6341 16.76 17.0661 16.888 17.5781 16.888C18.2341 16.888 18.8101 16.752 19.3061 16.48C19.8181 16.192 20.2101 15.8 20.4821 15.304C20.7701 14.808 20.9141 14.264 20.9141 13.672V10.312C20.9141 9.752 20.6901 9.288 20.2421 8.92C19.8101 8.536 19.2341 8.344 18.5141 8.344C17.8421 8.344 17.2421 8.528 16.7141 8.896C16.2021 9.248 15.8261 9.72 15.5861 10.312L13.0181 9.064C13.2741 8.376 13.6741 7.784 14.2181 7.288C14.7781 6.776 15.4341 6.376 16.1861 6.088C16.9381 5.8 17.7541 5.656 18.6341 5.656C19.7061 5.656 20.6501 5.856 21.4661 6.256C22.2821 6.64 22.9141 7.184 23.3621 7.888C23.8261 8.576 24.0581 9.384 24.0581 10.312V19H21.0821V16.768L21.7541 16.72C21.4181 17.28 21.0181 17.752 20.5541 18.136C20.0901 18.504 19.5621 18.792 18.9701 19C18.3781 19.192 17.7221 19.288 17.0021 19.288ZM31.932 19.288C30.54 19.288 29.324 18.96 28.284 18.304C27.26 17.632 26.556 16.728 26.172 15.592L28.524 14.464C28.86 15.2 29.324 15.776 29.916 16.192C30.524 16.608 31.196 16.816 31.932 16.816C32.508 16.816 32.964 16.688 33.3 16.432C33.636 16.176 33.804 15.84 33.804 15.424C33.804 15.168 33.732 14.96 33.588 14.8C33.46 14.624 33.276 14.48 33.036 14.368C32.812 14.24 32.564 14.136 32.292 14.056L30.156 13.456C29.052 13.136 28.212 12.648 27.636 11.992C27.076 11.336 26.796 10.56 26.796 9.664C26.796 8.864 26.996 8.168 27.396 7.576C27.812 6.968 28.38 6.496 29.1 6.16C29.836 5.824 30.676 5.656 31.62 5.656C32.852 5.656 33.94 5.952 34.884 6.544C35.828 7.136 36.5 7.968 36.9 9.04L34.5 10.168C34.276 9.576 33.9 9.104 33.372 8.752C32.844 8.4 32.252 8.224 31.596 8.224C31.068 8.224 30.652 8.344 30.348 8.584C30.044 8.824 29.892 9.136 29.892 9.52C29.892 9.76 29.956 9.968 30.084 10.144C30.212 10.32 30.388 10.464 30.612 10.576C30.852 10.688 31.124 10.792 31.428 10.888L33.516 11.512C34.588 11.832 35.412 12.312 35.988 12.952C36.58 13.592 36.876 14.376 36.876 15.304C36.876 16.088 36.668 16.784 36.252 17.392C35.836 17.984 35.26 18.448 34.524 18.784C33.788 19.12 32.924 19.288 31.932 19.288ZM39.2921 19V0.831999H42.4361V12.736L41.2361 12.376L47.3801 5.944H51.2921L46.4681 11.2L51.3881 19H47.7881L43.5161 12.232L45.3881 11.848L41.4521 16.072L42.4361 14.152V19H39.2921ZM53.1437 19V0.831999H56.2877V19H53.1437ZM60.7746 24.28C60.4226 24.28 60.0786 24.248 59.7426 24.184C59.4066 24.136 59.1026 24.04 58.8306 23.896V21.28C59.0386 21.328 59.2866 21.376 59.5746 21.424C59.8786 21.472 60.1586 21.496 60.4146 21.496C61.1346 21.496 61.6546 21.328 61.9746 20.992C62.3106 20.672 62.6066 20.24 62.8626 19.696L63.7266 17.68L63.6786 20.32L57.9906 5.944H61.3746L65.3586 16.552H64.1586L68.1186 5.944H71.5266L65.8386 20.32C65.5026 21.152 65.0946 21.864 64.6146 22.456C64.1346 23.048 63.5746 23.496 62.9346 23.8C62.3106 24.12 61.5906 24.28 60.7746 24.28Z" fill="#4169E1"/>
</svg>
